<!-- Generated by IcoMoon.io -->
<svg version="1.1" xmlns="http://www.w3.org/2000/svg" width="12" height="12" viewBox="0 0 12 12">
<title>phone-2</title>
<path d="M9.331 7.415l-1.225-0.14c-0.294-0.034-0.584 0.068-0.791 0.275l-0.888 0.888c-1.365-0.695-2.485-1.809-3.179-3.179l0.893-0.893c0.207-0.207 0.309-0.497 0.275-0.791l-0.14-1.216c-0.058-0.487-0.468-0.854-0.96-0.854h-0.835c-0.545 0-0.999 0.454-0.965 0.999 0.256 4.12 3.551 7.41 7.666 7.666 0.545 0.034 0.999-0.42 0.999-0.965v-0.835c0.005-0.487-0.362-0.897-0.849-0.955z"></path>
</svg>
